<mxfile host="app.diagrams.net" agent="Mozilla/5.0 (Windows NT 10.0; Win64; x64) AppleWebKit/537.36 (KHTML, like Gecko) Chrome/132.0.0.0 YaBrowser/25.2.0.0 Safari/537.36" version="26.0.16">
  <diagram name="Страница — 1" id="W4fA4WaMRZmaJOSm98-F">
    <mxGraphModel dx="2049" dy="1096" grid="0" gridSize="10" guides="1" tooltips="1" connect="1" arrows="1" fold="1" page="1" pageScale="1" pageWidth="827" pageHeight="1169" math="0" shadow="0">
      <root>
        <mxCell id="0" />
        <mxCell id="1" parent="0" />
        <mxCell id="mMVf_9y5Yj_PCZkCn3cm-171" value="МТС" style="swimlane;html=1;childLayout=stackLayout;resizeParent=1;resizeParentMax=0;horizontal=0;startSize=20;horizontalStack=0;whiteSpace=wrap;" vertex="1" parent="1">
          <mxGeometry x="21" y="30" width="3004" height="2698" as="geometry" />
        </mxCell>
        <mxCell id="mMVf_9y5Yj_PCZkCn3cm-172" value="Отдел маркетинга" style="swimlane;html=1;startSize=20;horizontal=0;" vertex="1" parent="mMVf_9y5Yj_PCZkCn3cm-171">
          <mxGeometry x="20" width="2984" height="180" as="geometry">
            <mxRectangle x="20" width="1150" height="30" as="alternateBounds" />
          </mxGeometry>
        </mxCell>
        <mxCell id="mMVf_9y5Yj_PCZkCn3cm-333" value="" style="points=[[0.145,0.145,0],[0.5,0,0],[0.855,0.145,0],[1,0.5,0],[0.855,0.855,0],[0.5,1,0],[0.145,0.855,0],[0,0.5,0]];shape=mxgraph.bpmn.event;html=1;verticalLabelPosition=bottom;labelBackgroundColor=#ffffff;verticalAlign=top;align=center;perimeter=ellipsePerimeter;outlineConnect=0;aspect=fixed;outline=standard;symbol=general;" vertex="1" parent="mMVf_9y5Yj_PCZkCn3cm-172">
          <mxGeometry x="133" y="65" width="50" height="50" as="geometry" />
        </mxCell>
        <mxCell id="mMVf_9y5Yj_PCZkCn3cm-334" value="Осуществить продвижение услуг" style="points=[[0.25,0,0],[0.5,0,0],[0.75,0,0],[1,0.25,0],[1,0.5,0],[1,0.75,0],[0.75,1,0],[0.5,1,0],[0.25,1,0],[0,0.75,0],[0,0.5,0],[0,0.25,0]];shape=mxgraph.bpmn.task;whiteSpace=wrap;rectStyle=rounded;size=10;html=1;container=1;expand=0;collapsible=0;taskMarker=abstract;" vertex="1" parent="mMVf_9y5Yj_PCZkCn3cm-172">
          <mxGeometry x="253" y="50" width="120" height="80" as="geometry" />
        </mxCell>
        <mxCell id="mMVf_9y5Yj_PCZkCn3cm-335" style="edgeStyle=orthogonalEdgeStyle;rounded=0;orthogonalLoop=1;jettySize=auto;html=1;entryX=0;entryY=0.5;entryDx=0;entryDy=0;entryPerimeter=0;" edge="1" parent="mMVf_9y5Yj_PCZkCn3cm-172" source="mMVf_9y5Yj_PCZkCn3cm-333" target="mMVf_9y5Yj_PCZkCn3cm-334">
          <mxGeometry relative="1" as="geometry" />
        </mxCell>
        <mxCell id="mMVf_9y5Yj_PCZkCn3cm-176" value="Коммерческий отдел" style="swimlane;html=1;startSize=20;horizontal=0;" vertex="1" parent="mMVf_9y5Yj_PCZkCn3cm-171">
          <mxGeometry x="20" y="180" width="2984" height="328" as="geometry" />
        </mxCell>
        <mxCell id="mMVf_9y5Yj_PCZkCn3cm-336" value="Привлечь клиента, предложив ему услугу" style="points=[[0.25,0,0],[0.5,0,0],[0.75,0,0],[1,0.25,0],[1,0.5,0],[1,0.75,0],[0.75,1,0],[0.5,1,0],[0.25,1,0],[0,0.75,0],[0,0.5,0],[0,0.25,0]];shape=mxgraph.bpmn.task;whiteSpace=wrap;rectStyle=rounded;size=10;html=1;container=1;expand=0;collapsible=0;taskMarker=abstract;" vertex="1" parent="mMVf_9y5Yj_PCZkCn3cm-176">
          <mxGeometry x="253" y="96" width="120" height="80" as="geometry" />
        </mxCell>
        <mxCell id="mMVf_9y5Yj_PCZkCn3cm-345" value="" style="edgeStyle=orthogonalEdgeStyle;rounded=0;orthogonalLoop=1;jettySize=auto;html=1;" edge="1" parent="mMVf_9y5Yj_PCZkCn3cm-176" source="mMVf_9y5Yj_PCZkCn3cm-338" target="mMVf_9y5Yj_PCZkCn3cm-342">
          <mxGeometry relative="1" as="geometry" />
        </mxCell>
        <mxCell id="mMVf_9y5Yj_PCZkCn3cm-348" value="" style="edgeStyle=orthogonalEdgeStyle;rounded=0;orthogonalLoop=1;jettySize=auto;html=1;" edge="1" parent="mMVf_9y5Yj_PCZkCn3cm-176" source="mMVf_9y5Yj_PCZkCn3cm-338" target="mMVf_9y5Yj_PCZkCn3cm-347">
          <mxGeometry relative="1" as="geometry" />
        </mxCell>
        <mxCell id="mMVf_9y5Yj_PCZkCn3cm-338" value="" style="points=[[0.25,0.25,0],[0.5,0,0],[0.75,0.25,0],[1,0.5,0],[0.75,0.75,0],[0.5,1,0],[0.25,0.75,0],[0,0.5,0]];shape=mxgraph.bpmn.gateway2;html=1;verticalLabelPosition=bottom;labelBackgroundColor=#ffffff;verticalAlign=top;align=center;perimeter=rhombusPerimeter;outlineConnect=0;outline=none;symbol=none;gwType=exclusive;" vertex="1" parent="mMVf_9y5Yj_PCZkCn3cm-176">
          <mxGeometry x="487" y="111" width="54" height="50" as="geometry" />
        </mxCell>
        <mxCell id="mMVf_9y5Yj_PCZkCn3cm-339" style="edgeStyle=orthogonalEdgeStyle;rounded=0;orthogonalLoop=1;jettySize=auto;html=1;entryX=0;entryY=0.5;entryDx=0;entryDy=0;entryPerimeter=0;" edge="1" parent="mMVf_9y5Yj_PCZkCn3cm-176" target="mMVf_9y5Yj_PCZkCn3cm-338">
          <mxGeometry relative="1" as="geometry">
            <mxPoint x="373" y="136" as="sourcePoint" />
          </mxGeometry>
        </mxCell>
        <mxCell id="mMVf_9y5Yj_PCZkCn3cm-340" value="Клиент не заинтересовался&lt;br&gt;услугой" style="text;strokeColor=none;fillColor=none;html=1;fontSize=9;fontStyle=1;verticalAlign=middle;align=center;" vertex="1" parent="mMVf_9y5Yj_PCZkCn3cm-176">
          <mxGeometry x="541" y="83" width="90" height="40" as="geometry" />
        </mxCell>
        <mxCell id="mMVf_9y5Yj_PCZkCn3cm-341" value="Клиент&amp;nbsp;&lt;div&gt;заинтересовался&lt;br&gt;услугой&lt;/div&gt;" style="text;strokeColor=none;fillColor=none;html=1;fontSize=9;fontStyle=1;verticalAlign=middle;align=center;" vertex="1" parent="mMVf_9y5Yj_PCZkCn3cm-176">
          <mxGeometry x="397" y="143" width="90" height="40" as="geometry" />
        </mxCell>
        <mxCell id="mMVf_9y5Yj_PCZkCn3cm-342" value="" style="points=[[0.145,0.145,0],[0.5,0,0],[0.855,0.145,0],[1,0.5,0],[0.855,0.855,0],[0.5,1,0],[0.145,0.855,0],[0,0.5,0]];shape=mxgraph.bpmn.event;html=1;verticalLabelPosition=bottom;labelBackgroundColor=#ffffff;verticalAlign=top;align=center;perimeter=ellipsePerimeter;outlineConnect=0;aspect=fixed;outline=end;symbol=terminate2;" vertex="1" parent="mMVf_9y5Yj_PCZkCn3cm-176">
          <mxGeometry x="601" y="111" width="50" height="50" as="geometry" />
        </mxCell>
        <mxCell id="mMVf_9y5Yj_PCZkCn3cm-343" value="&lt;span style=&quot;white-space: pre;&quot;&gt;&#x9;&lt;/span&gt;Клиент не заинтересован в услугах" style="strokeWidth=2;html=1;shape=mxgraph.flowchart.annotation_1;align=left;pointerEvents=1;" vertex="1" parent="mMVf_9y5Yj_PCZkCn3cm-176">
          <mxGeometry x="711" y="86" width="20" height="100" as="geometry" />
        </mxCell>
        <mxCell id="mMVf_9y5Yj_PCZkCn3cm-344" style="edgeStyle=orthogonalEdgeStyle;rounded=0;orthogonalLoop=1;jettySize=auto;html=1;entryX=0;entryY=0.5;entryDx=0;entryDy=0;entryPerimeter=0;dashed=1;endArrow=none;endFill=0;" edge="1" parent="mMVf_9y5Yj_PCZkCn3cm-176" source="mMVf_9y5Yj_PCZkCn3cm-342" target="mMVf_9y5Yj_PCZkCn3cm-343">
          <mxGeometry relative="1" as="geometry" />
        </mxCell>
        <mxCell id="mMVf_9y5Yj_PCZkCn3cm-347" value="" style="points=[[0.145,0.145,0],[0.5,0,0],[0.855,0.145,0],[1,0.5,0],[0.855,0.855,0],[0.5,1,0],[0.145,0.855,0],[0,0.5,0]];shape=mxgraph.bpmn.event;html=1;verticalLabelPosition=bottom;labelBackgroundColor=#ffffff;verticalAlign=top;align=center;perimeter=ellipsePerimeter;outlineConnect=0;aspect=fixed;outline=standard;symbol=message;" vertex="1" parent="mMVf_9y5Yj_PCZkCn3cm-176">
          <mxGeometry x="489" y="197" width="50" height="50" as="geometry" />
        </mxCell>
        <mxCell id="mMVf_9y5Yj_PCZkCn3cm-349" value="Отправка данных&lt;br&gt;клиента в&amp;nbsp;&lt;br&gt;отдел обслуживания" style="text;strokeColor=none;fillColor=none;html=1;fontSize=9;fontStyle=1;verticalAlign=middle;align=center;" vertex="1" parent="mMVf_9y5Yj_PCZkCn3cm-176">
          <mxGeometry x="551" y="202" width="90" height="40" as="geometry" />
        </mxCell>
        <mxCell id="mMVf_9y5Yj_PCZkCn3cm-196" value="Отдел обслуживания" style="swimlane;html=1;startSize=20;horizontal=0;" vertex="1" parent="mMVf_9y5Yj_PCZkCn3cm-171">
          <mxGeometry x="20" y="508" width="2984" height="660" as="geometry" />
        </mxCell>
        <mxCell id="mMVf_9y5Yj_PCZkCn3cm-351" value="" style="points=[[0.145,0.145,0],[0.5,0,0],[0.855,0.145,0],[1,0.5,0],[0.855,0.855,0],[0.5,1,0],[0.145,0.855,0],[0,0.5,0]];shape=mxgraph.bpmn.event;html=1;verticalLabelPosition=bottom;labelBackgroundColor=#ffffff;verticalAlign=top;align=center;perimeter=ellipsePerimeter;outlineConnect=0;aspect=fixed;outline=end;symbol=message;" vertex="1" parent="mMVf_9y5Yj_PCZkCn3cm-196">
          <mxGeometry x="489" y="119" width="50" height="50" as="geometry" />
        </mxCell>
        <mxCell id="mMVf_9y5Yj_PCZkCn3cm-353" value="Изучить данные и зарегистрировать заказ&lt;div&gt;&lt;br&gt;&lt;/div&gt;" style="points=[[0.25,0,0],[0.5,0,0],[0.75,0,0],[1,0.25,0],[1,0.5,0],[1,0.75,0],[0.75,1,0],[0.5,1,0],[0.25,1,0],[0,0.75,0],[0,0.5,0],[0,0.25,0]];shape=mxgraph.bpmn.task;whiteSpace=wrap;rectStyle=rounded;size=10;html=1;container=1;expand=0;collapsible=0;taskMarker=abstract;" vertex="1" parent="mMVf_9y5Yj_PCZkCn3cm-196">
          <mxGeometry x="582" y="113" width="120" height="62" as="geometry" />
        </mxCell>
        <mxCell id="mMVf_9y5Yj_PCZkCn3cm-354" style="edgeStyle=orthogonalEdgeStyle;rounded=0;orthogonalLoop=1;jettySize=auto;html=1;exitX=1;exitY=0.5;exitDx=0;exitDy=0;exitPerimeter=0;entryX=0;entryY=0.5;entryDx=0;entryDy=0;entryPerimeter=0;" edge="1" parent="mMVf_9y5Yj_PCZkCn3cm-196" source="mMVf_9y5Yj_PCZkCn3cm-351" target="mMVf_9y5Yj_PCZkCn3cm-353">
          <mxGeometry relative="1" as="geometry" />
        </mxCell>
        <mxCell id="mMVf_9y5Yj_PCZkCn3cm-355" value="&lt;div&gt;Создать договор и отправить клиенту&lt;/div&gt;" style="points=[[0.25,0,0],[0.5,0,0],[0.75,0,0],[1,0.25,0],[1,0.5,0],[1,0.75,0],[0.75,1,0],[0.5,1,0],[0.25,1,0],[0,0.75,0],[0,0.5,0],[0,0.25,0]];shape=mxgraph.bpmn.task;whiteSpace=wrap;rectStyle=rounded;size=10;html=1;container=1;expand=0;collapsible=0;taskMarker=abstract;" vertex="1" parent="mMVf_9y5Yj_PCZkCn3cm-196">
          <mxGeometry x="745" y="113" width="120" height="62" as="geometry" />
        </mxCell>
        <mxCell id="mMVf_9y5Yj_PCZkCn3cm-356" style="edgeStyle=orthogonalEdgeStyle;rounded=0;orthogonalLoop=1;jettySize=auto;html=1;exitX=1;exitY=0.5;exitDx=0;exitDy=0;exitPerimeter=0;entryX=0;entryY=0.5;entryDx=0;entryDy=0;entryPerimeter=0;" edge="1" parent="mMVf_9y5Yj_PCZkCn3cm-196" target="mMVf_9y5Yj_PCZkCn3cm-355">
          <mxGeometry relative="1" as="geometry">
            <mxPoint x="702" y="144" as="sourcePoint" />
          </mxGeometry>
        </mxCell>
        <mxCell id="mMVf_9y5Yj_PCZkCn3cm-233" value="Производственный отдел" style="swimlane;html=1;startSize=20;horizontal=0;" vertex="1" parent="mMVf_9y5Yj_PCZkCn3cm-171">
          <mxGeometry x="20" y="1168" width="2984" height="300" as="geometry" />
        </mxCell>
        <mxCell id="mMVf_9y5Yj_PCZkCn3cm-251" value="Плановый отдел" style="swimlane;html=1;startSize=20;horizontal=0;" vertex="1" parent="mMVf_9y5Yj_PCZkCn3cm-171">
          <mxGeometry x="20" y="1468" width="2984" height="160" as="geometry" />
        </mxCell>
        <mxCell id="mMVf_9y5Yj_PCZkCn3cm-260" value="Отдел персп. развития" style="swimlane;html=1;startSize=20;horizontal=0;" vertex="1" parent="mMVf_9y5Yj_PCZkCn3cm-171">
          <mxGeometry x="20" y="1628" width="2984" height="320" as="geometry" />
        </mxCell>
        <mxCell id="mMVf_9y5Yj_PCZkCn3cm-289" value="Технический отдел" style="swimlane;html=1;startSize=20;horizontal=0;" vertex="1" parent="mMVf_9y5Yj_PCZkCn3cm-171">
          <mxGeometry x="20" y="1948" width="2984" height="570" as="geometry" />
        </mxCell>
        <mxCell id="mMVf_9y5Yj_PCZkCn3cm-314" value="Отдел закупок" style="swimlane;html=1;startSize=20;horizontal=0;" vertex="1" parent="mMVf_9y5Yj_PCZkCn3cm-171">
          <mxGeometry x="20" y="2518" width="2984" height="180" as="geometry" />
        </mxCell>
        <mxCell id="mMVf_9y5Yj_PCZkCn3cm-337" value="" style="endArrow=classic;html=1;rounded=0;entryX=0.5;entryY=0;entryDx=0;entryDy=0;entryPerimeter=0;exitX=0.5;exitY=1;exitDx=0;exitDy=0;exitPerimeter=0;" edge="1" parent="mMVf_9y5Yj_PCZkCn3cm-171" source="mMVf_9y5Yj_PCZkCn3cm-334" target="mMVf_9y5Yj_PCZkCn3cm-336">
          <mxGeometry width="50" height="50" relative="1" as="geometry">
            <mxPoint x="333" y="136" as="sourcePoint" />
            <mxPoint x="385" y="78" as="targetPoint" />
          </mxGeometry>
        </mxCell>
        <mxCell id="mMVf_9y5Yj_PCZkCn3cm-352" value="" style="edgeStyle=orthogonalEdgeStyle;rounded=0;orthogonalLoop=1;jettySize=auto;html=1;" edge="1" parent="mMVf_9y5Yj_PCZkCn3cm-171" source="mMVf_9y5Yj_PCZkCn3cm-347" target="mMVf_9y5Yj_PCZkCn3cm-351">
          <mxGeometry relative="1" as="geometry" />
        </mxCell>
        <mxCell id="mMVf_9y5Yj_PCZkCn3cm-330" value="" style="swimlane;html=1;startSize=20;fontStyle=0;collapsible=0;horizontal=0;swimlaneLine=0;fillColor=none;whiteSpace=wrap;" vertex="1" parent="1">
          <mxGeometry x="20" y="2740" width="3000" height="100" as="geometry" />
        </mxCell>
        <mxCell id="mMVf_9y5Yj_PCZkCn3cm-331" value="&lt;font style=&quot;font-size: 42px;&quot;&gt;Бухгалтерия&lt;/font&gt;" style="text;html=1;strokeColor=none;fillColor=none;align=center;verticalAlign=middle;whiteSpace=wrap;rounded=0;" vertex="1" parent="mMVf_9y5Yj_PCZkCn3cm-330">
          <mxGeometry x="1540" y="35" width="80" height="30" as="geometry" />
        </mxCell>
      </root>
    </mxGraphModel>
  </diagram>
</mxfile>
